<mxfile host="app.diagrams.net" modified="2024-04-22T07:41:29.690Z" agent="Mozilla/5.0 (Windows NT 10.0; Win64; x64; rv:125.0) Gecko/20100101 Firefox/125.0" etag="_ZJrY6cAjaqyiBPGghNz" version="24.2.2" type="device">
  <diagram id="R2lEEEUBdFMjLlhIrx00" name="Page-1">
    <mxGraphModel dx="731" dy="744" grid="1" gridSize="10" guides="1" tooltips="1" connect="1" arrows="1" fold="1" page="1" pageScale="1" pageWidth="850" pageHeight="1100" math="0" shadow="0" extFonts="Permanent Marker^https://fonts.googleapis.com/css?family=Permanent+Marker">
      <root>
        <mxCell id="0" />
        <mxCell id="1" parent="0" />
        <mxCell id="M3E8qOzE-T0-WnazmGKJ-1" value="Actor" style="swimlane;childLayout=stackLayout;horizontal=1;startSize=50;horizontalStack=0;rounded=1;fontSize=14;fontStyle=0;strokeWidth=2;resizeParent=0;resizeLast=1;shadow=0;dashed=0;align=center;arcSize=4;whiteSpace=wrap;html=1;" parent="1" vertex="1">
          <mxGeometry x="170" y="150" width="190" height="120" as="geometry" />
        </mxCell>
        <mxCell id="M3E8qOzE-T0-WnazmGKJ-2" value="&lt;div&gt;actor_id SERIAL (PK)&lt;/div&gt;nombre VARCHAR(50) NOT NULL" style="align=left;strokeColor=none;fillColor=none;spacingLeft=4;fontSize=12;verticalAlign=top;resizable=0;rotatable=0;part=1;html=1;" parent="M3E8qOzE-T0-WnazmGKJ-1" vertex="1">
          <mxGeometry y="50" width="190" height="70" as="geometry" />
        </mxCell>
        <mxCell id="M3E8qOzE-T0-WnazmGKJ-7" style="edgeStyle=orthogonalEdgeStyle;rounded=0;orthogonalLoop=1;jettySize=auto;html=1;endArrow=none;endFill=0;" parent="1" source="M3E8qOzE-T0-WnazmGKJ-3" edge="1">
          <mxGeometry relative="1" as="geometry">
            <Array as="points">
              <mxPoint x="330" y="200" />
            </Array>
            <mxPoint x="360" y="200" as="targetPoint" />
          </mxGeometry>
        </mxCell>
        <mxCell id="M3E8qOzE-T0-WnazmGKJ-8" value="1" style="edgeLabel;html=1;align=center;verticalAlign=middle;resizable=0;points=[];" parent="M3E8qOzE-T0-WnazmGKJ-7" connectable="0" vertex="1">
          <mxGeometry x="0.816" y="2" relative="1" as="geometry">
            <mxPoint y="-12" as="offset" />
          </mxGeometry>
        </mxCell>
        <mxCell id="M3E8qOzE-T0-WnazmGKJ-9" value="n" style="edgeLabel;html=1;align=center;verticalAlign=middle;resizable=0;points=[];" parent="M3E8qOzE-T0-WnazmGKJ-7" connectable="0" vertex="1">
          <mxGeometry x="-0.8" relative="1" as="geometry">
            <mxPoint y="-10" as="offset" />
          </mxGeometry>
        </mxCell>
        <mxCell id="M3E8qOzE-T0-WnazmGKJ-3" value="ActorPelicula" style="swimlane;childLayout=stackLayout;horizontal=1;startSize=50;horizontalStack=0;rounded=1;fontSize=14;fontStyle=0;strokeWidth=2;resizeParent=0;resizeLast=1;shadow=0;dashed=0;align=center;arcSize=4;whiteSpace=wrap;html=1;" parent="1" vertex="1">
          <mxGeometry x="430" y="150" width="160" height="120" as="geometry" />
        </mxCell>
        <mxCell id="M3E8qOzE-T0-WnazmGKJ-4" value="&lt;div&gt;ID SERIAL (PK)&lt;br&gt;&lt;/div&gt;&lt;div&gt;Cliente_ID (FK)&lt;/div&gt;&lt;div&gt;Producto_ID(FK)&lt;br&gt;&lt;/div&gt;" style="align=left;strokeColor=none;fillColor=none;spacingLeft=4;fontSize=12;verticalAlign=top;resizable=0;rotatable=0;part=1;html=1;" parent="M3E8qOzE-T0-WnazmGKJ-3" vertex="1">
          <mxGeometry y="50" width="160" height="70" as="geometry" />
        </mxCell>
        <mxCell id="M3E8qOzE-T0-WnazmGKJ-5" value="Pelicula" style="swimlane;childLayout=stackLayout;horizontal=1;startSize=50;horizontalStack=0;rounded=1;fontSize=14;fontStyle=0;strokeWidth=2;resizeParent=0;resizeLast=1;shadow=0;dashed=0;align=center;arcSize=4;whiteSpace=wrap;html=1;" parent="1" vertex="1">
          <mxGeometry x="680" y="150" width="200" height="120" as="geometry" />
        </mxCell>
        <mxCell id="M3E8qOzE-T0-WnazmGKJ-6" value="&lt;div&gt;pelicula_id SERIAL (PK)&lt;/div&gt;&lt;div&gt;nombre VARCHAR(50) NOT NULL&lt;br&gt;&lt;/div&gt;&lt;div&gt;genero VARCHAR(50) NOT NULL&lt;br&gt;&lt;/div&gt;" style="align=left;strokeColor=none;fillColor=none;spacingLeft=4;fontSize=12;verticalAlign=top;resizable=0;rotatable=0;part=1;html=1;" parent="M3E8qOzE-T0-WnazmGKJ-5" vertex="1">
          <mxGeometry y="50" width="200" height="70" as="geometry" />
        </mxCell>
        <mxCell id="M3E8qOzE-T0-WnazmGKJ-10" style="edgeStyle=orthogonalEdgeStyle;rounded=0;orthogonalLoop=1;jettySize=auto;html=1;entryX=0;entryY=0.5;entryDx=0;entryDy=0;endArrow=none;endFill=0;" parent="1" source="M3E8qOzE-T0-WnazmGKJ-4" target="M3E8qOzE-T0-WnazmGKJ-6" edge="1">
          <mxGeometry relative="1" as="geometry">
            <Array as="points">
              <mxPoint x="680" y="200" />
            </Array>
          </mxGeometry>
        </mxCell>
        <mxCell id="M3E8qOzE-T0-WnazmGKJ-11" value="n" style="edgeLabel;html=1;align=center;verticalAlign=middle;resizable=0;points=[];" parent="M3E8qOzE-T0-WnazmGKJ-10" connectable="0" vertex="1">
          <mxGeometry x="-0.3631" y="-1" relative="1" as="geometry">
            <mxPoint x="-30" y="-11" as="offset" />
          </mxGeometry>
        </mxCell>
        <mxCell id="M3E8qOzE-T0-WnazmGKJ-12" value="1" style="edgeLabel;html=1;align=center;verticalAlign=middle;resizable=0;points=[];" parent="M3E8qOzE-T0-WnazmGKJ-10" connectable="0" vertex="1">
          <mxGeometry x="0.255" y="1" relative="1" as="geometry">
            <mxPoint y="-9" as="offset" />
          </mxGeometry>
        </mxCell>
      </root>
    </mxGraphModel>
  </diagram>
</mxfile>
